<svg width="223" height="62" viewBox="0 0 223 62" fill="none" xmlns="http://www.w3.org/2000/svg">
<path d="M21.6357 41.7391V51.3934C21.6357 57.251 16.8648 62.0002 10.9804 62.0002C5.0961 62.0002 0.325134 57.251 0.325134 51.3934V23.3179H0.34688L4.6003 26.9978L21.6357 41.7391Z" fill="white"/>
<path d="M57.6811 23.3179V51.3934C57.6811 57.251 52.9101 62.0002 47.0258 62.0002C41.1415 62.0002 36.3705 57.251 36.3705 51.3934V41.7391L53.4059 26.9978L57.6593 23.3179H57.6811Z" fill="white"/>
<path d="M57.6811 12.1307C57.6811 15.5898 56.2329 19.0273 53.4059 21.4734L47.9478 26.1966L29.0031 42.5917L10.0584 26.1966L4.6003 21.4734C1.77339 19.0273 0.325134 15.5898 0.325134 12.1307C0.325134 9.25172 1.32978 6.35975 3.37386 4.01759C3.46954 3.90936 3.56087 3.80545 3.6609 3.70155C9.16251 -2.18631 18.8958 -0.831233 22.8013 6.20822L29.0031 17.3822L35.2049 6.20822C39.1104 -0.831233 48.8437 -2.18198 54.3453 3.70155C54.441 3.80545 54.5367 3.90936 54.6324 4.01759C56.6808 6.35975 57.6811 9.25172 57.6811 12.1307Z" fill="white"/>
<path d="M106.369 19.9107V42.1287C106.369 43.7998 104.969 45.1938 103.251 45.1938C101.533 45.1938 100.211 43.7998 100.211 42.1287V30.3832L93.8918 42.2499C93.3308 43.3235 92.3696 43.9643 91.291 43.9643C90.2125 43.9643 89.2904 43.3668 88.7294 42.2499L82.371 30.3832V42.1287C82.371 43.7998 81.0097 45.1938 79.3701 45.1938C77.6479 45.1938 76.2518 43.7998 76.2518 42.1287V19.9107C76.2518 18.0404 77.6914 17.0836 79.0135 17.0836C80.253 17.0836 81.4142 18.0404 82.0144 19.0751L91.2954 35.5221L100.576 19.0751C101.177 18.0404 102.377 17.0836 103.616 17.0836C104.939 17.0836 106.378 18.0404 106.378 19.9107H106.369Z" fill="white"/>
<path d="M130.168 33.8077C130.168 36.1152 128.928 36.9118 126.527 36.9118L115.568 36.7516C116.09 39.2193 118.047 40.5744 120.808 40.5744C122.131 40.5744 122.526 40.3753 123.687 39.977C124.488 39.6566 125.088 39.3016 125.849 39.3016C127.049 39.3016 127.81 40.1761 127.81 41.2931C127.81 42.0117 127.532 42.804 126.41 43.6829C125.01 44.6007 123.092 45.276 120.569 45.276C115.168 45.276 109.488 42.0507 109.488 34.8035C109.488 27.5562 115.529 24.1317 120.086 24.1317C124.644 24.1317 130.168 27.7553 130.168 33.8077ZM115.568 32.8509H124.409C124.009 30.223 122.17 29.1883 120.091 29.1883C118.012 29.1883 115.929 30.223 115.572 32.8509H115.568Z" fill="white"/>
<path d="M152.848 19.5124V42.449C152.848 44.0422 151.448 45.315 149.887 45.315C148.325 45.315 146.968 44.0422 146.968 42.488C146.49 43.605 144.568 45.354 141.41 45.354C137.009 45.354 131.768 41.9685 131.768 34.7212C131.768 27.474 137.048 24.1317 141.41 24.1317C144.128 24.1317 146.212 25.6037 146.929 27.1969V19.5124C146.929 17.9581 148.29 16.6464 149.847 16.6464C151.404 16.6464 152.848 17.9625 152.848 19.5124ZM147.208 34.7212C147.208 30.5391 144.489 29.1061 142.489 29.1061C140.049 29.1061 137.609 31.0153 137.609 34.7212C137.609 38.4271 140.049 40.3753 142.489 40.3753C144.489 40.3753 147.208 38.9423 147.208 34.7212Z" fill="white"/>
<path d="M181.965 19.7894C181.965 20.3869 181.805 21.0233 181.565 21.5038L171.884 43.0854C171.245 44.6007 170.323 45.315 168.966 45.315C167.609 45.315 166.726 44.5964 166.048 43.0854L156.406 21.5038C156.167 21.0276 156.006 20.3869 156.006 19.7894C156.006 18.3175 157.284 17.0836 158.924 17.0836C160.246 17.0836 161.325 17.8412 161.803 18.9928L168.962 35.8382L176.164 18.9928C176.642 17.8369 177.682 17.0836 179.043 17.0836C180.682 17.0836 181.961 18.3175 181.961 19.7894H181.965Z" fill="white"/>
<path d="M201.167 27.1189V42.449C201.167 44.0422 199.766 45.315 198.205 45.315C196.644 45.315 195.287 44.0422 195.287 42.488C194.808 43.6049 192.886 45.354 189.729 45.354C185.327 45.354 180.087 41.9685 180.087 34.7212C180.087 27.4739 185.366 24.1317 189.729 24.1317C192.49 24.1317 194.608 25.6426 195.287 27.2791V27.1189C195.287 25.5647 196.609 24.2529 198.205 24.2529C199.801 24.2529 201.167 25.569 201.167 27.1189ZM195.526 34.7212C195.526 30.5391 192.808 29.1061 190.807 29.1061C188.367 29.1061 185.928 31.0153 185.928 34.7212C185.928 38.4271 188.367 40.3753 190.807 40.3753C192.808 40.3753 195.526 38.9423 195.526 34.7212Z" fill="white"/>
<path d="M222.325 42.6871C222.325 44.1201 221.047 45.276 219.685 45.276C218.807 45.276 218.167 44.8388 217.606 44.2024L212.927 38.6262L208.286 44.2024C207.764 44.8388 207.086 45.276 206.247 45.276C204.846 45.276 203.568 44.1201 203.568 42.6871C203.568 42.1286 203.768 41.6134 204.168 41.1719L209.726 34.7212L204.207 28.3917C203.846 27.9545 203.646 27.435 203.646 26.8375C203.646 25.4045 204.924 24.2486 206.286 24.2486C207.125 24.2486 207.886 24.6469 208.365 25.3223L212.927 30.8551L217.567 25.3223C218.089 24.6469 218.768 24.2486 219.607 24.2486C220.968 24.2486 222.286 25.4045 222.286 26.8375C222.286 27.435 222.047 27.9545 221.686 28.3917L216.206 34.7212L221.725 41.1719C222.125 41.6091 222.325 42.1286 222.325 42.6871Z" fill="white"/>
<path d="M212.944 24.3482C214.513 24.3482 215.784 23.0825 215.784 21.5212C215.784 19.9599 214.513 18.6942 212.944 18.6942C211.376 18.6942 210.104 19.9599 210.104 21.5212C210.104 23.0825 211.376 24.3482 212.944 24.3482Z" fill="white"/>
</svg>
