<svg width="221" height="62" viewBox="0 0 221 62" fill="none" xmlns="http://www.w3.org/2000/svg">
<path d="M21.1822 41.7235V51.3636C21.1822 57.2125 16.44 61.9547 10.5911 61.9547C4.74222 61.9547 0 57.2125 0 51.3636V23.3296H0.0216145L4.24941 27.0041L21.1822 41.7235Z" fill="#121F41"/>
<path d="M57.0103 23.3296V51.3636C57.0103 57.2125 52.2681 61.9547 46.4192 61.9547C40.5703 61.9547 35.8281 57.2125 35.8281 51.3636V41.7235L52.7609 27.0041L56.9887 23.3296H57.0103Z" fill="#121F41"/>
<path d="M57.0104 12.159C57.0104 15.613 55.5709 19.0454 52.761 21.4879L47.3358 26.2041L28.5052 42.575L9.67465 26.2041L4.24941 21.4879C1.43953 19.0454 0 15.613 0 12.159C0 9.2843 0.998591 6.3966 3.03035 4.05791C3.12546 3.94984 3.21624 3.84609 3.31567 3.74234C8.78414 -2.13681 18.4588 -0.783739 22.3408 6.2453L28.5052 17.4027L34.6697 6.2453C38.5516 -0.783739 48.2263 -2.13248 53.6948 3.74234C53.7899 3.84609 53.885 3.94984 53.9801 4.05791C56.0162 6.3966 57.0104 9.2843 57.0104 12.159Z" fill="#121F41"/>
<path d="M105.405 19.9273V42.1125C105.405 43.7811 104.013 45.1731 102.306 45.1731C100.598 45.1731 99.2841 43.7811 99.2841 42.1125V30.3844L93.0029 42.2335C92.4453 43.3056 91.4899 43.9454 90.4178 43.9454C89.3458 43.9454 88.4293 43.3488 87.8716 42.2335L81.5516 30.3844V42.1125C81.5516 43.7811 80.1985 45.1731 78.5688 45.1731C76.8569 45.1731 75.4692 43.7811 75.4692 42.1125V19.9273C75.4692 18.0599 76.9001 17.1045 78.2143 17.1045C79.4463 17.1045 80.6005 18.0599 81.1971 19.093L90.4222 35.5157L99.6472 19.093C100.244 18.0599 101.437 17.1045 102.669 17.1045C103.983 17.1045 105.414 18.0599 105.414 19.9273H105.405Z" fill="#121F41"/>
<path d="M129.06 33.8038C129.06 36.1079 127.828 36.9033 125.442 36.9033L114.548 36.7433C115.067 39.2074 117.012 40.5605 119.757 40.5605C121.072 40.5605 121.465 40.3616 122.619 39.9639C123.415 39.644 124.011 39.2895 124.768 39.2895C125.961 39.2895 126.717 40.1628 126.717 41.2781C126.717 41.9957 126.441 42.7868 125.325 43.6643C123.933 44.5808 122.027 45.2551 119.52 45.2551C114.151 45.2551 108.505 42.0346 108.505 34.798C108.505 27.5615 114.509 24.1421 119.04 24.1421C123.57 24.1421 129.06 27.7604 129.06 33.8038ZM114.548 32.8484H123.337C122.939 30.2244 121.11 29.1912 119.044 29.1912C116.978 29.1912 114.907 30.2244 114.553 32.8484H114.548Z" fill="#121F41"/>
<path d="M151.604 19.5297V42.4325C151.604 44.0233 150.212 45.2942 148.66 45.2942C147.108 45.2942 145.76 44.0233 145.76 42.4714C145.284 43.5867 143.373 45.3331 140.235 45.3331C135.86 45.3331 130.651 41.9526 130.651 34.7161C130.651 27.4795 135.899 24.1423 140.235 24.1423C142.937 24.1423 145.007 25.6121 145.721 27.2029V19.5297C145.721 17.9778 147.074 16.668 148.621 16.668C150.169 16.668 151.604 17.9821 151.604 19.5297ZM145.997 34.7161C145.997 30.5402 143.295 29.1093 141.307 29.1093C138.882 29.1093 136.457 31.0157 136.457 34.7161C136.457 38.4165 138.882 40.3618 141.307 40.3618C143.295 40.3618 145.997 38.9309 145.997 34.7161Z" fill="#121F41"/>
<path d="M180.546 19.8063C180.546 20.4029 180.386 21.0383 180.148 21.5182L170.525 43.0678C169.89 44.5809 168.974 45.2941 167.625 45.2941C166.276 45.2941 165.399 44.5765 164.724 43.0678L155.14 21.5182C154.903 21.0427 154.743 20.4029 154.743 19.8063C154.743 18.3365 156.013 17.1045 157.643 17.1045C158.957 17.1045 160.029 17.861 160.505 19.0109L167.62 35.8313L174.779 19.0109C175.255 17.8567 176.288 17.1045 177.641 17.1045C179.271 17.1045 180.542 18.3365 180.542 19.8063H180.546Z" fill="#121F41"/>
<path d="M199.632 27.1249V42.4323C199.632 44.0231 198.24 45.294 196.688 45.294C195.136 45.294 193.787 44.0231 193.787 42.4712C193.312 43.5865 191.401 45.333 188.262 45.333C183.888 45.333 178.679 41.9524 178.679 34.7159C178.679 27.4794 183.927 24.1421 188.262 24.1421C191.008 24.1421 193.113 25.6508 193.787 27.2848V27.1249C193.787 25.573 195.101 24.2631 196.688 24.2631C198.274 24.2631 199.632 25.5773 199.632 27.1249ZM194.025 34.7159C194.025 30.54 191.323 29.1091 189.335 29.1091C186.909 29.1091 184.484 31.0155 184.484 34.7159C184.484 38.4163 186.909 40.3616 189.335 40.3616C191.323 40.3616 194.025 38.9307 194.025 34.7159Z" fill="#121F41"/>
<path d="M220.663 42.67C220.663 44.1009 219.392 45.2551 218.038 45.2551C217.165 45.2551 216.53 44.8185 215.972 44.183L211.321 38.6151L206.708 44.183C206.189 44.8185 205.515 45.2551 204.681 45.2551C203.289 45.2551 202.018 44.1009 202.018 42.67C202.018 42.1124 202.217 41.5979 202.614 41.157L208.139 34.7159L202.653 28.3958C202.294 27.9592 202.096 27.4404 202.096 26.8439C202.096 25.413 203.367 24.2588 204.72 24.2588C205.554 24.2588 206.31 24.6565 206.786 25.3309L211.321 30.8555L215.933 25.3309C216.452 24.6565 217.126 24.2588 217.961 24.2588C219.314 24.2588 220.624 25.413 220.624 26.8439C220.624 27.4404 220.386 27.9592 220.027 28.3958L214.58 34.7159L220.066 41.157C220.464 41.5936 220.663 42.1124 220.663 42.67Z" fill="#121F41"/>
<path d="M211.338 24.3586C212.897 24.3586 214.161 23.0948 214.161 21.5357C214.161 19.9767 212.897 18.7129 211.338 18.7129C209.779 18.7129 208.515 19.9767 208.515 21.5357C208.515 23.0948 209.779 24.3586 211.338 24.3586Z" fill="#121F41"/>
</svg>
